<?xml version="1.0" standalone="no"?>
<!DOCTYPE svg PUBLIC "-//W3C//DTD SVG 20010904//EN"
 "http://www.w3.org/TR/2001/REC-SVG-20010904/DTD/svg10.dtd">
<svg version="1.0" xmlns="http://www.w3.org/2000/svg"
 width="166.000000pt" height="166.000000pt" viewBox="0 0 166.000000 166.000000"
 preserveAspectRatio="xMidYMid meet">
<metadata>
Created by potrace 1.11, written by Peter Selinger 2001-2013
</metadata>
<g transform="translate(0.000000,166.000000) scale(0.100000,-0.100000)"
fill="#000000" stroke="none">
<path d="M0 830 l0 -820 830 0 830 0 0 820 0 820 -830 0 -830 0 0 -820z m663
450 c65 -94 123 -170 128 -170 5 0 9 71 9 170 l0 170 75 0 75 0 -2 -332 -3
-333 -55 -3 -55 -2 -125 177 -125 178 -3 -178 -2 -177 -75 0 -75 0 0 335 0
335 58 0 57 -1 118 -169z m-373 -470 l0 -330 -75 0 -75 0 0 330 0 330 75 0 75
0 0 -330z m1250 260 l0 -70 -150 0 -150 0 0 -65 0 -64 148 -3 147 -3 0 -70 0
-70 -147 -3 -147 -3 -3 -117 -3 -117 -75 0 -75 0 -3 328 -2 327 230 0 230 0 0
-70z m-103 -565 c2 -17 1 -17 -3 -2 -4 13 -12 17 -25 14 -10 -3 -19 -1 -19 5
0 19 45 3 47 -17z m60 19 c-3 -3 -12 -4 -19 -1 -8 3 -5 6 6 6 11 1 17 -2 13
-5z m-35 -196 c2 -14 13 -25 28 -29 22 -6 23 -7 4 -8 -24 -1 -34 -19 -34 -61
0 -41 10 -60 31 -60 10 0 19 -4 19 -10 0 -17 -57 -12 -64 6 -3 9 -6 38 -6 65
0 27 -4 49 -10 49 -5 0 -10 7 -10 15 0 8 5 15 10 15 6 0 10 9 10 20 0 27 18
25 22 -2z m-1191 -29 c30 -15 13 -29 -21 -16 -24 9 -32 8 -49 -8 -25 -22 -27
-67 -5 -89 18 -19 38 -20 66 -5 25 13 35 5 18 -16 -7 -9 -29 -15 -50 -15 -30
0 -43 6 -59 26 -56 72 20 166 100 123z m203 -10 c55 -43 23 -139 -47 -139 -62
0 -97 51 -76 109 20 53 76 67 123 30z m126 11 c0 -7 6 -7 19 0 29 15 62 12 83
-7 14 -12 18 -31 18 -80 0 -47 -3 -64 -12 -61 -8 3 -14 27 -16 59 -2 36 -8 58
-19 67 -23 16 -30 15 -53 -8 -15 -15 -20 -33 -20 -71 0 -36 -4 -49 -12 -47 -9
3 -14 31 -16 81 -2 64 0 77 13 77 8 0 15 -5 15 -10z m309 1 c23 -15 3 -33 -21
-20 -50 27 -96 -36 -64 -86 17 -26 45 -32 77 -15 15 8 19 7 19 -4 0 -31 -80
-36 -110 -6 -28 28 -27 87 2 117 22 24 70 31 97 14z m187 1 c15 -10 34 -47 34
-66 0 -13 -12 -16 -58 -16 -68 0 -79 -6 -55 -32 18 -20 45 -23 74 -8 15 8 19
7 19 -4 0 -17 -21 -26 -60 -26 -65 0 -94 87 -45 135 24 25 68 33 91 17z m126
-3 c3 -9 9 -9 25 0 80 42 154 -61 91 -128 -18 -20 -28 -23 -70 -18 l-48 6 0
-34 c0 -19 -4 -35 -10 -35 -6 0 -10 43 -10 110 0 61 4 110 9 110 5 0 11 -5 13
-11z"/>
<path d="M387 272 c-33 -36 -10 -102 36 -102 23 0 57 36 57 60 0 25 -34 60
-58 60 -11 0 -26 -8 -35 -18z"/>
<path d="M1015 268 c-15 -23 -15 -23 36 -26 61 -4 68 1 44 28 -24 26 -60 25
-80 -2z"/>
<path d="M1247 272 c-24 -26 -22 -79 2 -92 29 -15 49 -12 72 11 15 15 19 28
14 47 -12 50 -58 67 -88 34z"/>
</g>
</svg>
